<svg width="44" height="44" viewBox="0 0 44 44" fill="none" xmlns="http://www.w3.org/2000/svg">
<rect width="44" height="43.9998" rx="11" fill="#C7C7C7"/>
<path fill-rule="evenodd" clip-rule="evenodd" d="M42.0642 4.76605C36.8603 20.3832 14.8312 31.523 0.585205 36.5494C2.06175 40.8827 6.16681 43.9997 10.9999 43.9997H32.9999C39.075 43.9997 43.9999 39.0748 43.9999 32.9997V10.9999C43.9999 8.68543 43.2851 6.53791 42.0642 4.76605Z" fill="#B6B6B6"/>
<path fill-rule="evenodd" clip-rule="evenodd" d="M0.697632 36.8635C2.26186 41.0328 6.28441 44 11 44H33C39.0751 44 44 39.0752 44 33V11.0003C44 8.82504 43.3686 6.7973 42.2791 5.09027C42.7301 6.29229 42.9767 7.59422 42.9767 8.95375V30.9535C42.9767 37.0286 38.0519 41.9535 31.9767 41.9535H9.97675C6.07685 41.9535 2.65096 39.924 0.697632 36.8635Z" fill="#9C9C9C"/>
<path fill-rule="evenodd" clip-rule="evenodd" d="M11 0C4.92487 0 0 4.92487 0 11V32.9998C0 36.2977 1.45135 39.2567 3.75019 41.2728C2.05244 39.337 1.02325 36.8002 1.02325 34.023V12.0233C1.02325 5.94813 5.94812 1.02326 12.0233 1.02326H34.0232C36.8004 1.02326 39.3372 2.05245 41.2731 3.75021C39.2569 1.45136 36.298 0 33 0H11Z" fill="#ECE7E7"/>
</svg>
